HIERARCHY
ROOT Hips
{
	OFFSET -0.001795 -0.223333 0.028219
	CHANNELS 6 Xposition Yposition Zposition Zrotation Yrotation Xrotation 
	JOINT LeftUpLeg
	{
		OFFSET 0.069520 -0.091406 -0.006815
		CHANNELS 3 Zrotation Yrotation Xrotation
		JOINT LeftLeg
		{
			OFFSET 0.034277 -0.375199 -0.004496
			CHANNELS 3 Zrotation Yrotation Xrotation
			JOINT LeftFoot
			{
				OFFSET -0.013596 -0.397961 -0.043693
				CHANNELS 3 Zrotation Yrotation Xrotation
				JOINT LeftToe
				{
					OFFSET 0.026358 -0.055791 0.119288
					CHANNELS 3 Zrotation Yrotation Xrotation
					End Site
					{
						OFFSET 0.000000 0.000000 0.000000
					}
				}
			}
		}
	}
	JOINT RightUpLeg
	{
		OFFSET -0.067670 -0.090522 -0.004320
		CHANNELS 3 Zrotation Yrotation Xrotation
		JOINT RightLeg
		{
			OFFSET -0.038290 -0.382569 -0.008850
			CHANNELS 3 Zrotation Yrotation Xrotation
			JOINT RightFoot
			{
				OFFSET 0.015774 -0.398415 -0.042312
				CHANNELS 3 Zrotation Yrotation Xrotation
				JOINT RightToe
				{
					OFFSET -0.025372 -0.048144 0.123348
					CHANNELS 3 Zrotation Yrotation Xrotation
					End Site
					{
						OFFSET 0.000000 0.000000 0.000000
					}
				}
			}
		}
	}
	JOINT Spine
	{
		OFFSET -0.002533 0.108963 -0.026696
		CHANNELS 3 Zrotation Yrotation Xrotation
		JOINT Spine1
		{
			OFFSET 0.005487 0.135180 0.001092
			CHANNELS 3 Zrotation Yrotation Xrotation
			JOINT Spine2
			{
				OFFSET 0.001457 0.052922 0.025425
				CHANNELS 3 Zrotation Yrotation Xrotation
				JOINT Neck
				{
					OFFSET -0.002778 0.213870 -0.042857
					CHANNELS 3 Zrotation Yrotation Xrotation
					JOINT Head
					{
						OFFSET 0.005152 0.064970 0.051349
						CHANNELS 3 Zrotation Yrotation Xrotation
						End Site
						{
							OFFSET 0.000000 0.000000 0.000000
						}
					}
				}
				JOINT LeftShoulder
				{
					OFFSET 0.078845 0.121749 -0.034090
					CHANNELS 3 Zrotation Yrotation Xrotation
					JOINT LeftArm
					{
						OFFSET 0.090977 0.030469 -0.008868
						CHANNELS 3 Zrotation Yrotation Xrotation
						JOINT LeftForeArm
						{
							OFFSET 0.259612 -0.012772 -0.027456
							CHANNELS 3 Zrotation Yrotation Xrotation
							JOINT LeftHand
							{
								OFFSET 0.249234 0.008986 -0.001171
								CHANNELS 3 Zrotation Yrotation Xrotation
								End Site
								{
									OFFSET 0.000000 0.000000 0.000000
								}
							}
						}
					}
				}
				JOINT RightShoulder
				{
					OFFSET -0.081759 0.118833 -0.038615
					CHANNELS 3 Zrotation Yrotation Xrotation
					JOINT RightArm
					{
						OFFSET -0.096012 0.032551 -0.009143
						CHANNELS 3 Zrotation Yrotation Xrotation
						JOINT RightForeArm
						{
							OFFSET -0.253742 -0.013329 -0.021401
							CHANNELS 3 Zrotation Yrotation Xrotation
							JOINT RightHand
							{
								OFFSET -0.255298 0.007772 -0.005559
								CHANNELS 3 Zrotation Yrotation Xrotation
								End Site
								{
									OFFSET 0.000000 0.000000 0.000000
								}
							}
						}
					}
				}
			}
		}
	}
}
MOTION
Frames: 8
Frame Time: 0.050000
0.000000 0.952429 0.000000 -0.191735 1.993424 7.024549 3.393350 -0.855906 -12.015421 -4.932734 0.539552 4.404503 -6.375091 -6.164872 11.541355 0.000000 0.000000 0.000000 -3.425793 1.114220 -14.501566 1.474027 -0.035606 5.009173 -17.341706 -31.070811 29.392545 0.000000 0.000000 0.000000 0.600371 -1.170978 22.290039 3.606984 -1.410754 -3.897472 4.987937 7.001040 11.442520 2.710070 -0.119706 -13.259327 0.000000 0.000000 0.000000 -28.386373 -21.590071 8.735680 -57.306547 -20.945985 3.518800 2.933091 -37.499420 0.175602 0.000000 0.000000 0.000000 20.301217 30.466213 18.236026 40.041082 36.295398 6.922673 -21.666205 10.780191 -1.022994 0.000000 0.000000 0.000000 
-0.001006 0.952252 -0.000521 -0.472161 -0.226711 7.131862 3.513572 -0.797304 -11.692010 -4.683399 0.535730 4.013927 -5.244080 -4.666963 11.157821 0.000000 0.000000 0.000000 -3.537093 1.122633 -14.084949 2.413856 -0.187656 3.314922 -16.202229 -30.161283 28.239319 0.000000 0.000000 0.000000 0.848018 -1.131977 22.365850 4.860848 -1.872141 -5.052072 4.468535 6.557191 12.574096 2.374079 -0.120610 -12.613005 0.000000 0.000000 0.000000 -30.128004 -20.240589 8.622995 -53.996609 -21.234836 3.165265 0.936997 -40.064595 1.083278 0.000000 0.000000 0.000000 19.088724 31.631386 18.057480 42.202124 36.447199 7.627011 -23.393588 11.283370 -1.218450 0.000000 0.000000 0.000000 
-0.001813 0.952799 -0.000646 -0.074382 -1.027169 6.472257 3.313930 -0.766702 -11.165412 -5.092331 0.614462 4.472953 -4.965772 -4.168924 11.365115 0.000000 0.000000 0.000000 -3.838228 1.064080 -13.486668 2.309917 -0.167954 3.333183 -15.657687 -29.666436 27.677995 0.000000 0.000000 0.000000 0.940510 -1.126209 22.764151 4.778491 -1.784740 -5.949059 3.903151 5.295548 12.556109 2.248311 -0.407746 -10.807521 0.000000 0.000000 0.000000 -30.754874 -19.693245 9.027377 -54.085511 -23.827407 4.192150 2.132546 -38.511735 0.791804 0.000000 0.000000 0.000000 18.788663 30.862003 17.002437 43.708425 34.732238 7.391551 -22.335311 15.148772 -1.811361 0.000000 0.000000 0.000000 
-0.002689 0.953699 -0.000604 -0.180121 -2.287956 6.299242 3.509580 -0.711690 -10.756544 -5.247121 0.657770 4.332660 -4.431637 -3.317866 11.538803 0.000000 0.000000 0.000000 -3.578476 1.047457 -12.715478 2.264701 -0.177719 2.175006 -14.637435 -28.692363 26.665819 0.000000 0.000000 0.000000 0.659553 -1.002582 22.846650 5.373405 -1.995772 -6.527460 3.871029 4.923131 13.489631 2.227030 -0.445456 -11.225487 0.000000 0.000000 0.000000 -30.803855 -20.509486 10.112609 -54.905914 -24.093714 4.188118 5.808038 -41.720680 -0.373877 0.000000 0.000000 0.000000 19.643313 30.898774 16.962801 43.326746 34.218289 7.047078 -22.920862 17.323854 -2.255777 0.000000 0.000000 0.000000 
-0.003613 0.954596 -0.000165 -0.034876 -3.578898 5.829621 3.266135 -0.663294 -9.912420 -5.137045 0.658842 4.040822 -3.902834 -2.485993 11.727039 0.000000 0.000000 0.000000 -3.449719 1.003154 -11.842956 2.020971 -0.153903 1.687122 -13.411476 -27.490410 24.947842 0.000000 0.000000 0.000000 1.179820 -1.058983 22.963571 5.447246 -1.995288 -7.219889 3.221401 3.906661 14.264827 1.855078 -0.228300 -12.462803 0.000000 0.000000 0.000000 -30.792642 -20.883714 11.122654 -54.801608 -25.918574 4.796851 8.893530 -43.192341 -1.391440 0.000000 0.000000 0.000000 18.595436 29.968914 15.615399 44.941987 33.490449 7.154229 -22.019283 20.996718 -2.766221 0.000000 0.000000 0.000000 
-0.004732 0.955513 0.000583 -0.077018 -4.695093 5.715463 3.564975 -0.602461 -9.418740 -5.563234 0.737147 3.688681 -3.471893 -1.765146 12.036540 0.000000 0.000000 0.000000 -3.068938 1.018065 -11.607993 1.486163 -0.085304 1.860429 -11.952562 -25.872179 23.247271 0.000000 0.000000 0.000000 1.222291 -1.010024 22.849138 6.110994 -2.222546 -7.810954 2.476372 2.971865 14.765872 1.884510 -0.399207 -12.507532 0.000000 0.000000 0.000000 -30.498487 -20.556490 11.516843 -55.717003 -27.029927 5.256148 11.983301 -44.466207 -2.459730 0.000000 0.000000 0.000000 17.707948 29.484172 14.697679 45.959127 32.477325 6.975677 -20.165721 24.945504 -3.086242 0.000000 0.000000 0.000000 
-0.006031 0.955756 0.001531 -0.117522 -5.940295 5.604249 3.644203 -0.554367 -8.891307 -5.623821 0.761339 3.343419 -2.907457 -0.955624 12.076821 0.000000 0.000000 0.000000 -2.853670 1.027828 -11.444395 1.359576 -0.059686 2.075771 -10.801027 -24.554873 21.536258 0.000000 0.000000 0.000000 1.328678 -0.963812 22.568416 6.126261 -2.212822 -8.240455 1.842154 2.631638 15.184166 2.107581 -0.632129 -12.801133 0.000000 0.000000 0.000000 -31.018820 -20.522233 12.007674 -55.194754 -27.601553 5.302086 14.684153 -46.412602 -3.565797 0.000000 0.000000 0.000000 18.041147 29.080845 14.283094 46.978748 31.104472 6.621305 -19.193159 28.404589 -3.399090 0.000000 0.000000 0.000000 
-0.007272 0.955964 0.002410 -0.181859 -7.171317 5.579232 3.633748 -0.512612 -8.323243 -5.500312 0.749762 2.768009 -2.339675 -0.143241 12.119665 0.000000 0.000000 0.000000 -2.704559 1.045701 -11.433384 1.404511 -0.063788 1.941941 -10.182459 -23.852430 21.018413 0.000000 0.000000 0.000000 1.304688 -0.894452 22.334139 6.239517 -2.258221 -8.419507 1.181444 2.499059 15.330247 2.341359 -0.845825 -13.055374 0.000000 0.000000 0.000000 -30.748002 -20.280954 12.111206 -55.531307 -28.347742 5.642058 17.514894 -47.092340 -4.710072 0.000000 0.000000 0.000000 18.426020 28.950382 14.093750 47.493633 30.197031 6.362465 -17.397703 30.568926 -3.282102 0.000000 0.000000 0.000000 
